<svg xmlns="http://www.w3.org/2000/svg" width="682.667" height="682.667" viewBox="0 0 512 512" preserveAspectRatio="xMidYMid meet" xmlns:v="https://vecta.io/nano"><path d="M460.588 496.961l16.516-30.674.622-76.422 21.252-22.683-2.361-84.767-19.133-22.691-5.447-92.792-38.678-20.95-73.342-128.944-34.143-4.648-217.092 134.034-85.079 11.833L11.9 192.985l1.53 282.22 29.931 25.327z" fill="#f0eeed"/><path d="M324 2.3c-4 1.4-50.8 28.1-121.9 69.5L86.7 139H66.1c-11.3 0-23.5.5-27.1 1.1-17.1 2.7-31.3 14.7-37 31.4-2 5.7-2 8.3-2 154l1.5 153.2c4.5 15 16.8 27.3 31.8 31.8 4.4 1.3 30.7 1.5 211.1 1.5 223 0 209.1.3 220.3-5.3 6.2-3.2 15-11.9 18.5-18.4 5.5-9.9 5.8-13.3 5.8-55.5V394l4.8-2.4c5.5-2.8 12-9.5 15.4-15.8l2.3-4.3V326v-45.5l-2.4-4.9c-3.1-6.1-10.4-13.5-15.9-16l-4.2-1.9v-39.2c0-33.1-.2-40-1.6-44.6-5.1-17.3-18.8-30.1-35.4-33.2l-5.6-1.1-34-59.4c-36-63-39.6-68.3-49.7-74.1-11.6-6.5-26.5-8-38.7-3.8zm24.8 24.3c2.9 1.4 6.1 3.8 7.2 5.4l1.9 2.7-89.5 52.2-89.6 52.1-21.3-.2-21.3-.3 94.4-55 99.2-57.2c6.4-3.1 12.5-3 19 .3zm26.9 38.7c2.8 5 4.9 9.5 4.5 9.9s-25.1 14.9-55 32.3L271 139l-21.3-.2-21.3-.3L299 97.3l71-41.2c.3 0 2.8 4.1 5.7 9.2zm29.8 52.3c6.4 11.3 11.5 20.7 11.3 21-.3.2-22 .3-48.3.2l-47.8-.3 35.4-20.7L392.6 97c.6 0 6.4 9.3 12.9 20.6zm46.1 48.1c5.3 2.8 10.7 9.1 12.2 14.2.8 2.6 1.2 15.4 1.2 40V256h-39.8c-36.4 0-40.6.2-47.6 2-24 6.1-42.9 24.9-49.7 49.5-2.8 10-3 25.8-.5 35.5 6.1 23.4 24 42.3 48 50.3 5.7 1.9 9 2.1 47.9 2.4l41.7.4v36.7c0 36.5 0 36.7-2.4 41.8-2.7 5.7-8.4 11-13.6 12.4-2.2.6-77.5 1-205.5 1-194.7 0-202.1-.1-206-1.9-2.2-1-5.4-3.4-7.2-5.2-6.8-7.2-6.3 4.2-6.3-155.2V181.4l2.6-5.2c3-6.1 9.2-10.9 15.7-12.2 2.3-.4 94.4-.7 204.7-.6l200.5.1 4.1 2.2zM482 281.5c5.9 3.1 6 3.8 6 44.5 0 41.1 0 41.4-6.4 44.4-3 1.4-8.6 1.6-45.3 1.6-23 0-44.5-.5-47.8-1s-9.1-2.5-13-4.4c-28.3-14-34.3-50.7-12-73.1 6-6 12.6-9.8 20.8-12 8-2.1 93.6-2.1 97.7 0zm-94.3 21.9c-12.1 4.5-18.2 17-14.6 29.9 1.2 4.3 6.8 11.1 11 13.2 12 6.2 26.6 1.9 32.3-9.7 6-12 1.7-26.1-9.7-32-5.2-2.6-14-3.3-19-1.4z"/></svg>