<?xml version="1.0" encoding="UTF-8" standalone="no"?>
<svg
   viewBox="0 0 150 150"
   version="1.1"
   id="svg2"
   sodipodi:docname="usdt.svg"
   inkscape:version="1.3.2 (091e20ef0f, 2023-11-25)"
   width="150"
   height="150"
   xmlns:inkscape="http://www.inkscape.org/namespaces/inkscape"
   xmlns:sodipodi="http://sodipodi.sourceforge.net/DTD/sodipodi-0.dtd"
   xmlns="http://www.w3.org/2000/svg"
   xmlns:svg="http://www.w3.org/2000/svg">
  <defs
     id="defs2" />
  <sodipodi:namedview
     id="namedview2"
     pagecolor="#f0eeed"
     bordercolor="#000000"
     borderopacity="0.25"
     inkscape:showpageshadow="2"
     inkscape:pageopacity="0.0"
     inkscape:pagecheckerboard="0"
     inkscape:deskcolor="#d1d1d1"
     inkscape:zoom="1.7258208"
     inkscape:cx="-99.952442"
     inkscape:cy="74.457326"
     inkscape:window-width="1920"
     inkscape:window-height="1011"
     inkscape:window-x="0"
     inkscape:window-y="32"
     inkscape:window-maximized="1"
     inkscape:current-layer="svg2" />
  <circle
     cx="75"
     cy="75"
     fill="#26a17b"
     id="circle1"
     style="stroke-width:1.20578"
     r="75" />
  <g
     fill="#f0eeed"
     id="g1"
     transform="matrix(1.2057878,0,0,1.2057878,-5.3838401,-16.510846)">
    <path
       d="m 73.295,81.633 v -0.01 c -0.43,0.03 -2.65,0.16 -7.59,0.16 -3.95,0 -6.72,-0.11 -7.7,-0.16 v 0.01 c -15.19,-0.67 -26.52,-3.31 -26.52,-6.48 0,-3.16 11.34,-5.81 26.52,-6.48 v 10.33 c 0.99,0.07 3.84,0.24 7.77,0.24 4.72,0 7.08,-0.2 7.52,-0.24 v -10.32 c 15.16,0.68 26.46,3.32 26.46,6.48 0,3.16 -11.31,5.8 -26.46,6.48 m 0,-14.03 v -9.24 h 21.15 v -14.09 h -57.58 v 14.09 h 21.15 v 9.24 c -17.19,0.79 -30.11,4.19 -30.11,8.27 0,4.08 12.93,7.48 30.11,8.28 v 29.62 h 15.29 v -29.62 c 17.16,-0.79 30.06,-4.19 30.06,-8.27 0,-4.07 -12.9,-7.48 -30.06,-8.27"
       id="path1" />
  </g>
</svg>
